<svg width="31px" height="49px" viewBox="0 0 31 49" version="1.1" xmlns:xlink="http://www.w3.org/1999/xlink" xmlns="http://www.w3.org/2000/svg">
  <g id="Group-2" transform="translate(2.5 2.5)">
    <g id="Group" transform="matrix(1 0 0 -1 0 38.589508)">
      <path d="M0 31.1527L4.68399 31.1527L4.68397 26.1659L4.70032 26.1659L4.70032 4.10704L9.8265 4.10704C13.3758 4.10704 16.0327 5.10337 17.7972 7.09605C19.5617 9.08874 20.444 11.9307 20.444 15.622C20.444 19.293 19.5744 22.1147 17.8353 24.087C16.168 25.9779 13.7342 26.9624 10.534 27.0406L10.534 31.1523C13.5411 31.135 16.1219 30.514 18.2764 29.2893C20.4617 28.0471 22.14 26.2673 23.3113 23.9502C24.4825 21.633 25.0682 18.8569 25.0682 15.622C25.0682 12.3769 24.48 9.58818 23.3037 7.25579C22.1274 4.92339 20.4212 3.13099 18.1851 1.8786C15.949 0.626194 13.249 0 10.0851 0L0 0L0 31.1527L0 31.1527Z" id="Vector-shape" fill="#FD3F3F" fill-rule="evenodd" stroke="none" />
    </g>
    <path d="M12.5341 44L12.5341 0" id="Line" fill="none" fill-rule="evenodd" stroke="#FD3F3F" stroke-width="5" stroke-linecap="square" />
  </g>
</svg>